<?xml version="1.0" standalone="no"?>
<!DOCTYPE svg PUBLIC "-//W3C//DTD SVG 20010904//EN"
 "http://www.w3.org/TR/2001/REC-SVG-20010904/DTD/svg10.dtd">
<svg version="1.0" xmlns="http://www.w3.org/2000/svg"
 width="632.000000pt" height="356.000000pt" viewBox="0 0 632.000000 356.000000"
 preserveAspectRatio="xMidYMid meet">

<g transform="translate(0.000000,356.000000) scale(0.100000,-0.100000)"
fill="#000000" stroke="none">
<path d="M0 1780 l0 -1780 3160 0 3160 0 0 1780 0 1780 -3160 0 -3160 0 0
-1780z m1608 988 l402 -403 -2 -392 -3 -391 -800 793 -800 794 400 0 400 1
403 -402z m2922 -553 c0 -113 -2 -135 -15 -135 -13 0 -15 22 -15 135 0 113 2
135 15 135 13 0 15 -22 15 -135z m95 115 c0 -8 -8 -16 -17 -18 -13 -2 -18 3
-18 18 0 15 5 20 18 18 9 -2 17 -10 17 -18z m-1965 -72 c86 -191 81 -178 62
-178 -11 0 -23 13 -31 35 l-12 35 -69 0 -68 0 -12 -35 c-8 -23 -18 -35 -30
-35 -16 0 -11 17 38 125 39 87 61 125 73 125 11 0 28 -25 49 -72z m290 57 c36
-19 60 -62 60 -110 0 -87 -49 -125 -165 -125 l-75 0 0 125 0 125 75 0 c48 0
87 -6 105 -15z m275 -109 c30 -66 55 -121 55 -123 0 -1 -7 -3 -15 -3 -9 0 -23
16 -32 35 -16 35 -18 35 -80 35 -63 0 -64 0 -80 -35 -10 -20 -24 -35 -34 -35
-14 0 -7 22 39 125 44 97 61 124 75 122 12 -1 35 -40 72 -121z m367 108 c44
-23 22 -39 -26 -19 -31 13 -44 14 -73 4 -36 -12 -73 -59 -73 -94 0 -35 37 -82
73 -94 29 -10 42 -9 73 4 48 20 70 4 26 -19 -37 -19 -98 -20 -132 -3 -34 17
-70 74 -70 112 0 38 36 95 70 112 34 17 95 16 132 -3z m209 -73 c21 -22 29
-39 29 -66 0 -72 -86 -119 -152 -84 -32 17 -51 74 -38 115 23 70 108 88 161
35z m109 19 c0 -7 6 -7 19 0 29 15 77 12 95 -6 14 -14 18 -14 38 0 31 22 84
20 108 -4 16 -16 20 -33 20 -95 0 -60 -3 -75 -15 -75 -12 0 -15 14 -15 70 0
62 -3 71 -24 85 -17 11 -30 13 -48 6 -32 -12 -38 -28 -38 -102 0 -46 -3 -59
-15 -59 -12 0 -15 14 -15 70 0 62 -3 71 -24 85 -17 11 -30 13 -48 6 -32 -12
-38 -28 -38 -102 0 -46 -3 -59 -15 -59 -12 0 -15 17 -15 95 0 78 3 95 15 95 8
0 15 -5 15 -10z m370 -6 c0 -14 2 -14 22 0 33 24 82 20 115 -8 23 -20 28 -32
28 -71 0 -39 -5 -51 -28 -71 -33 -29 -91 -32 -119 -7 -17 15 -18 14 -18 -35 0
-40 -4 -52 -15 -52 -13 0 -15 21 -15 130 0 109 2 130 15 130 8 0 15 -7 15 -16z
m340 -79 c0 -78 -3 -95 -15 -95 -12 0 -15 17 -15 95 0 78 3 95 15 95 12 0 15
-17 15 -95z m188 79 c19 -13 22 -24 22 -93 l0 -77 -62 -2 c-67 -2 -98 14 -98
51 0 37 29 57 82 57 42 0 48 3 48 20 0 28 -40 42 -80 28 -37 -12 -53 -2 -26
18 26 19 86 18 114 -2z m122 6 c0 -7 6 -7 19 0 31 16 79 12 101 -10 16 -16 20
-33 20 -95 0 -60 -3 -75 -15 -75 -12 0 -15 14 -15 70 0 63 -2 71 -24 86 -22
13 -29 14 -53 2 -26 -12 -28 -17 -31 -86 -2 -55 -6 -72 -17 -72 -12 0 -15 18
-15 95 0 78 3 95 15 95 8 0 15 -5 15 -10z m344 -9 c23 -25 6 -35 -29 -17 -46
24 -95 -7 -95 -59 0 -52 49 -83 95 -59 35 18 52 8 29 -17 -11 -13 -30 -19 -56
-19 -54 0 -98 43 -98 95 0 52 44 95 98 95 26 0 45 -6 56 -19z m187 6 c20 -15
39 -51 39 -71 0 -13 -14 -16 -75 -16 -53 0 -75 -4 -75 -12 1 -40 52 -62 98
-43 37 16 55 2 26 -20 -23 -17 -87 -19 -116 -4 -11 6 -26 26 -34 46 -18 42 -5
94 29 118 26 18 86 19 108 2z m-1814 -1564 c-2 -16 -4 -5 -4 22 0 28 2 40 4
28 2 -13 2 -35 0 -50z m183 52 c0 -15 6 -17 64 -19 38 -1 48 -26 10 -26 -30 0
-23 -15 11 -22 11 -3 -8 -5 -42 -5 l-63 -1 0 44 c0 24 5 44 10 44 6 0 10 -7
10 -15z m181 -15 c15 0 19 -7 18 -32 -1 -28 -2 -30 -7 -10 -9 30 -26 33 -30 5
-2 -16 -10 -23 -27 -23 -18 0 -24 7 -27 30 -5 32 9 65 19 43 7 -19 23 -16 24
5 1 16 2 16 6 0 2 -10 13 -18 24 -18z m149 -15 c0 -38 -3 -45 -20 -45 -11 0
-20 5 -20 10 0 6 -9 10 -19 10 -11 0 -23 -4 -26 -10 -3 -5 -11 -10 -16 -10 -5
0 0 18 11 40 11 22 24 40 29 40 5 0 16 -17 24 -37 l16 -38 0 43 c1 23 6 42 11
42 6 0 10 -20 10 -45z m30 0 c0 -25 -4 -45 -10 -45 -5 0 -10 20 -10 45 0 25 5
45 10 45 6 0 10 -20 10 -45z m-577 28 c-27 -5 -31 -22 -5 -24 16 -1 16 -2 0
-6 -26 -6 -22 -31 5 -36 16 -3 13 -5 -10 -6 -32 -1 -33 0 -33 39 0 39 1 40 33
39 23 -1 26 -3 10 -6z m64 -60 c-3 -10 -5 -2 -5 17 0 19 2 27 5 18 2 -10 2
-26 0 -35z m121 15 c3 -24 0 -28 -22 -28 -28 0 -35 17 -11 26 22 9 18 24 -5
21 -32 -5 -48 -26 -30 -37 12 -7 9 -10 -13 -10 -27 0 -27 1 -12 24 15 23 15
25 -2 29 -10 3 7 5 37 4 52 -2 55 -3 58 -29z m452 20 c0 -10 2 -10 9 0 4 8 19
12 32 10 18 -2 25 -10 27 -30 2 -16 -1 -28 -7 -28 -6 0 -11 11 -11 25 0 14 -4
25 -10 25 -5 0 -10 -11 -10 -25 0 -14 -4 -25 -10 -25 -5 0 -10 7 -10 15 0 9
-9 15 -25 15 -31 0 -32 -8 -2 -20 l22 -9 -23 0 c-24 -1 -38 20 -28 44 7 18 46
20 46 3z"/>
<path d="M2584 2236 c-14 -31 -24 -59 -21 -62 3 -3 27 -4 54 -2 l50 3 -28 59
-28 60 -27 -58z"/>
<path d="M2810 2205 l0 -108 54 6 c81 8 116 39 116 102 0 63 -35 94 -116 102
l-54 6 0 -108z"/>
<path d="M3126 2236 c-14 -33 -24 -61 -22 -63 2 -2 26 -3 53 -1 l50 3 -27 60
-27 60 -27 -59z"/>
<path d="M3705 2238 c-28 -16 -35 -28 -35 -63 0 -36 8 -48 37 -64 41 -21 93
16 93 67 0 44 -58 81 -95 60z"/>
<path d="M4321 2237 c-50 -25 -48 -107 4 -127 53 -20 103 28 89 85 -11 43 -54
62 -93 42z"/>
<path d="M4722 2159 c-28 -11 -26 -38 4 -50 29 -10 68 11 72 39 3 18 -1 22
-25 21 -15 0 -38 -4 -51 -10z"/>
<path d="M5380 2237 c-14 -7 -26 -20 -28 -30 -3 -15 5 -17 57 -17 63 0 70 5
49 32 -19 23 -50 29 -78 15z"/>
<path d="M3830 700 c0 -11 5 -20 10 -20 6 0 10 9 10 20 0 11 -4 20 -10 20 -5
0 -10 -9 -10 -20z"/>
<path d="M3960 700 c0 -11 5 -20 10 -20 6 0 10 9 10 20 0 11 -4 20 -10 20 -5
0 -10 -9 -10 -20z"/>
<path d="M4090 715 c0 -8 4 -15 10 -15 5 0 7 7 4 15 -4 8 -8 15 -10 15 -2 0
-4 -7 -4 -15z"/>
</g>
</svg>
